HIERARCHY
ROOT Hips
{
 OFFSET 0.000000 0.000000 0.000000
 CHANNELS 6 Xposition Yposition Zposition Yrotation Xrotation Zrotation
 JOINT Chest
 {
  OFFSET 0.000000 9.588913 -0.003946
  CHANNELS 3 Yrotation Xrotation Zrotation
  JOINT Chest2
  {
   OFFSET 0.000000 9.541882 0.008053
   CHANNELS 3 Yrotation Xrotation Zrotation
   JOINT Chest3
   {
    OFFSET 0.000000 9.501360 0.000000
    CHANNELS 3 Yrotation Xrotation Zrotation
    JOINT Chest4
    {
     OFFSET 0.000000 9.491660 0.000000
     CHANNELS 3 Yrotation Xrotation Zrotation
     JOINT Neck
     {
      OFFSET 0.000000 14.331917 0.000000
      CHANNELS 3 Yrotation Xrotation Zrotation
      JOINT Head
      {
       OFFSET 0.000000 8.884799 0.017034
       CHANNELS 3 Yrotation Xrotation Zrotation
       End Site
       {
        OFFSET 0.000000 16.896195 0.008993
       }
      }
     }
     JOINT RightCollar
     {
      OFFSET -2.923010 9.499495 0.000000
      CHANNELS 3 Yrotation Xrotation Zrotation
      JOINT RightShoulder
      {
       OFFSET -13.795216 0.000000 0.000000
       CHANNELS 3 Yrotation Xrotation Zrotation
       JOINT RightElbow
       {
        OFFSET -30.272209 0.000000 0.000000
        CHANNELS 3 Yrotation Xrotation Zrotation
        JOINT RightWrist
        {
         OFFSET -24.478199 0.000000 0.000000
         CHANNELS 3 Yrotation Xrotation Zrotation
         End Site
         {
          OFFSET -18.090752 0.000000 0.000000
         }
        }
       }
      }
     }
     JOINT LeftCollar
     {
      OFFSET 2.923010 9.499495 0.000000
      CHANNELS 3 Yrotation Xrotation Zrotation
      JOINT LeftShoulder
      {
       OFFSET 13.795216 0.000000 0.000000
       CHANNELS 3 Yrotation Xrotation Zrotation
       JOINT LeftElbow
       {
        OFFSET 30.272209 0.000000 0.000000
        CHANNELS 3 Yrotation Xrotation Zrotation
        JOINT LeftWrist
        {
         OFFSET 24.478199 0.000000 0.000000
         CHANNELS 3 Yrotation Xrotation Zrotation
         End Site
         {
          OFFSET 18.090752 0.000000 0.000000
         }
        }
       }
      }
     }
    }
   }
  }
 }
 JOINT RightHip
 {
  OFFSET -7.826875 0.019532 0.001973
  CHANNELS 3 Yrotation Xrotation Zrotation
  JOINT RightKnee
  {
   OFFSET 0.000000 -40.546152 -0.001885
   CHANNELS 3 Yrotation Xrotation Zrotation
   JOINT RightAnkle
   {
    OFFSET 0.000000 -39.417092 -0.003189
    CHANNELS 3 Yrotation Xrotation Zrotation
    JOINT RightToe
    {
     OFFSET 0.000000 -7.579396 17.243563
     CHANNELS 3 Yrotation Xrotation Zrotation
     End Site
     {
      OFFSET 0.000000 -1.500329 6.694466
     }
    }
   }
  }
 }
 JOINT LeftHip
 {
  OFFSET 7.826875 0.019532 0.001973
  CHANNELS 3 Yrotation Xrotation Zrotation
  JOINT LeftKnee
  {
   OFFSET 0.000000 -40.546152 -0.001885
   CHANNELS 3 Yrotation Xrotation Zrotation
   JOINT LeftAnkle
   {
    OFFSET 0.000000 -39.417092 -0.003189
    CHANNELS 3 Yrotation Xrotation Zrotation
    JOINT LeftToe
    {
     OFFSET 0.000000 -7.579396 17.243563
     CHANNELS 3 Yrotation Xrotation Zrotation
     End Site
     {
      OFFSET 0.000000 -1.500329 6.694466
     }
    }
   }
  }
 }
}
MOTION
Frames: 15
Frame Time: 0.008333
-1.538491 54.129559 -31.217500 66.277037 -21.845523 0.797103 -8.964801 10.082406 -0.410443 -5.119658 5.770005 -0.010474 -6.407899 7.210554 -0.094269 -5.119659 5.770005 -0.010474 0.688889 31.526084 -0.368734 0.852102 9.857507 -0.566396 -2.490182 1.035814 -5.264831 -8.613785 -1.807701 63.413541 98.830464 -5.315731 30.384601 1.122379 -0.723658 1.119452 9.978535 0.781852 3.241477 10.057331 -2.914663 -77.155012 -82.573225 -21.771795 -54.546433 4.630170 0.699228 -3.859585 -7.019854 -60.530405 -23.858325 149.282897 84.602178 145.412522 3.224534 -12.885462 4.807307 0.010296 -0.050095 -0.012487 17.301854 -48.673718 -48.167244 81.442548 74.445451 100.983638 0.266828 -10.952234 -4.409287 0.003722 0.095035 0.020256
-1.540073 54.129219 -31.219545 66.282562 -21.822224 0.799514 -8.958456 10.095584 -0.400222 -5.117094 5.777690 -0.007111 -6.404658 7.220207 -0.090130 -5.117094 5.777690 -0.007111 0.697418 31.526456 -0.350036 0.857431 9.857941 -0.547428 -2.682774 1.119636 -5.343237 -9.256434 -1.308218 63.530232 99.309804 -5.336780 30.337252 1.180255 -0.755791 1.010265 10.183395 0.940999 3.362875 10.689500 -2.465878 -76.783490 -82.750215 -22.097713 -54.966764 4.537529 0.667605 -3.939296 -7.043582 -60.561853 -23.841559 149.282801 84.602175 145.400395 3.222512 -12.880543 4.807973 0.014409 -0.053210 -0.009516 17.304311 -48.705630 -48.185109 81.459032 74.444275 100.994624 0.265845 -10.938437 -4.415535 0.003878 0.089548 0.019042
-1.541610 54.129512 -31.220497 66.289167 -21.799499 0.799848 -8.952599 10.108373 -0.389255 -5.115445 5.784041 -0.003911 -6.402562 7.228189 -0.086191 -5.115445 5.784041 -0.003911 0.708181 31.530373 -0.331451 0.865293 9.863256 -0.529090 -2.884639 1.211301 -5.426481 -9.870400 -0.847051 63.648480 99.732893 -5.392072 30.314240 1.227661 -0.776663 0.922006 10.383251 1.097133 3.478595 11.306942 -2.036243 -76.404924 -82.960523 -22.401038 -55.363567 4.428977 0.645060 -4.002889 -7.070051 -60.590620 -23.822927 149.256148 84.601029 145.365080 3.218313 -12.876025 4.804947 0.018585 -0.056083 -0.005510 17.300472 -48.737665 -48.197775 81.482412 74.445243 101.011068 0.268093 -10.928416 -4.421666 0.003532 0.085909 0.017311
-1.542807 54.130528 -31.220620 66.296568 -21.778027 0.800580 -8.948447 10.119545 -0.379900 -5.114509 5.789185 -0.001490 -6.401367 7.234653 -0.083219 -5.114509 5.789186 -0.001490 0.720375 31.537072 -0.313889 0.874992 9.872407 -0.512219 -3.088640 1.308178 -5.512755 -10.452070 -0.407172 63.764920 100.109928 -5.484019 30.297606 1.308491 -0.766941 0.873435 10.577048 1.250675 3.596476 11.892258 -1.617644 -76.026340 -83.235026 -22.673672 -55.698698 4.294571 0.626660 -4.054906 -7.091074 -60.616146 -23.810674 149.218858 84.598893 145.321696 3.215921 -12.872450 4.800629 0.021254 -0.058941 -0.001275 17.294798 -48.767556 -48.209097 81.505470 74.445191 101.027353 0.268890 -10.919953 -4.428492 0.004501 0.082686 0.016146
-1.544060 54.132039 -31.220275 66.305645 -21.754161 0.802301 -8.945611 10.126904 -0.372496 -5.113641 5.793530 0.000765 -6.400258 7.240114 -0.080446 -5.113642 5.793530 0.000765 0.731891 31.544045 -0.298492 0.884423 9.881947 -0.497611 -3.284162 1.402841 -5.598788 -11.007192 0.019599 63.875865 100.453631 -5.581488 30.273519 1.415487 -0.753042 0.875247 10.764037 1.398389 3.719955 12.431101 -1.211499 -75.657124 -83.564114 -22.922113 -55.963473 4.142954 0.614787 -4.098660 -7.103463 -60.641714 -23.806518 149.219474 84.600012 145.318956 3.217579 -12.869122 4.797328 0.022451 -0.061666 0.002663 17.290990 -48.797600 -48.223567 81.518283 74.444581 101.036069 0.266982 -10.909601 -4.436486 0.007097 0.079030 0.015780
-1.545198 54.134085 -31.219217 66.316684 -21.729217 0.803594 -8.943901 10.133533 -0.365541 -5.113408 5.797615 0.003511 -6.399934 7.245258 -0.077065 -5.113408 5.797615 0.003511 0.741346 31.548599 -0.287320 0.892492 9.888194 -0.487259 -3.464578 1.493727 -5.682649 -11.539800 0.424072 63.979930 100.777928 -5.660583 30.245526 1.526685 -0.760841 0.917967 10.954063 1.536644 3.848312 12.920209 -0.829819 -75.309292 -83.913669 -23.150439 -56.180522 3.984416 0.607945 -4.141206 -7.111921 -60.665769 -23.805932 149.256275 84.603949 145.354875 3.221314 -12.866871 4.794355 0.023157 -0.064167 0.006471 17.286376 -48.825818 -48.239505 81.525074 74.444945 101.041372 0.266926 -10.900736 -4.443840 0.008555 0.076695 0.014525
-1.545743 54.136782 -31.217210 66.328539 -21.706380 0.804177 -8.943842 10.141714 -0.358567 -5.113916 5.801580 0.006815 -6.400529 7.250259 -0.072995 -5.113917 5.801580 0.006815 0.747227 31.549614 -0.282519 0.897987 9.889615 -0.483217 -3.633007 1.586470 -5.762554 -12.042029 0.795678 64.072582 101.093321 -5.718303 30.216594 1.628331 -0.774841 0.976622 11.144755 1.665312 3.977100 13.375362 -0.474960 -74.988934 -84.257529 -23.366490 -56.380119 3.832497 0.599803 -4.188130 -7.117430 -60.684845 -23.806928 149.288684 84.606703 145.388294 3.221269 -12.867511 4.792045 0.023957 -0.066093 0.010028 17.280701 -48.848164 -48.254442 81.529145 74.446142 101.045718 0.269984 -10.896645 -4.449251 0.007448 0.076718 0.012388
-1.545696 54.140045 -31.213968 66.338686 -21.686357 0.802744 -8.943168 10.151169 -0.350495 -5.114331 5.805303 0.010487 -6.400999 7.254963 -0.068460 -5.114331 5.805303 0.010487 0.748412 31.547237 -0.284405 0.899727 9.886395 -0.485587 -3.791701 1.683190 -5.835918 -12.513130 1.128537 64.150084 101.400917 -5.756878 30.185417 1.722579 -0.769372 1.044261 11.324369 1.786204 4.100416 13.809274 -0.146824 -74.693877 -84.577145 -23.583785 -56.580533 3.705511 0.588641 -4.241380 -7.119974 -60.697084 -23.806920 149.288951 84.608167 145.392834 3.217224 -12.870938 4.790532 0.025018 -0.066788 0.012825 17.277000 -48.864011 -48.265271 81.538063 74.448593 101.056526 0.274208 -10.899195 -4.450976 0.004076 0.078476 0.009570
-1.545237 54.143634 -31.209645 66.345991 -21.667964 0.799362 -8.941033 10.161621 -0.341429 -5.113988 5.808326 0.014771 -6.400510 7.258800 -0.063137 -5.113988 5.808326 0.014771 0.743932 31.541269 -0.293029 0.896639 9.878253 -0.494211 -3.939401 1.777548 -5.901248 -12.955708 1.424599 64.214426 101.700434 -5.777645 30.154876 1.805125 -0.740925 1.115919 11.493060 1.899727 4.210858 14.222969 0.150753 -74.420175 -84.856795 -23.807067 -56.789943 3.612996 0.577867 -4.304547 -7.120429 -60.703784 -23.806215 149.267479 84.610032 145.379054 3.215783 -12.877617 4.788602 0.024799 -0.065345 0.014700 17.276479 -48.873760 -48.269822 81.548211 74.451965 101.070034 0.275584 -10.910674 -4.447099 0.000762 0.083350 0.005461
-1.544686 54.147146 -31.205024 66.351895 -21.647955 0.796220 -8.939141 10.169494 -0.333532 -5.112995 5.810331 0.019599 -6.399196 7.261374 -0.057108 -5.112995 5.810331 0.019599 0.734293 31.531698 -0.307056 0.888988 9.865171 -0.507707 -4.073983 1.866423 -5.956803 -13.371837 1.688476 64.270683 101.992157 -5.783695 30.131870 1.866814 -0.703927 1.186428 11.651311 2.004446 4.305473 14.616525 0.418687 -74.167399 -85.096269 -24.032589 -57.008022 3.553428 0.567839 -4.375358 -7.117208 -60.710396 -23.808793 149.233300 84.612306 145.355511 3.215668 -12.886185 4.785756 0.022641 -0.062206 0.015904 17.281140 -48.879457 -48.273629 81.543540 74.454873 101.071857 0.272713 -10.927805 -4.438783 -0.000528 0.091487 0.000389
-1.544364 54.150260 -31.200275 66.357877 -21.624903 0.792140 -8.937073 10.171647 -0.325419 -5.111683 5.811376 0.024297 -6.397482 7.262747 -0.051223 -5.111683 5.811377 0.024297 0.721408 31.519399 -0.323447 0.878236 9.848342 -0.523110 -4.193536 1.951495 -6.004242 -13.766655 1.923145 64.325479 102.275057 -5.783678 30.119755 1.892972 -0.672012 1.259050 11.791501 2.101642 4.387678 14.983330 0.654464 -73.937217 -85.301913 -24.259455 -57.226190 3.520831 0.557770 -4.445993 -7.110902 -60.719299 -23.813921 149.202814 84.616272 145.340125 3.215740 -12.893150 4.781373 0.020700 -0.059276 0.016880 17.291196 -48.885644 -48.279603 81.531630 74.457556 101.070789 0.266430 -10.945736 -4.429992 0.000792 0.099331 -0.003584
-1.544022 54.152906 -31.195369 66.364798 -21.601401 0.786487 -8.934273 10.170202 -0.316238 -5.110089 5.811319 0.028886 -6.395415 7.262741 -0.045456 -5.110089 5.811319 0.028886 0.706196 31.505366 -0.340856 0.865108 9.829132 -0.539123 -4.297412 2.032376 -6.048298 -14.138400 2.130700 64.382107 102.539905 -5.789315 30.113276 1.893228 -0.645068 1.343096 11.909113 2.192439 4.457507 15.315003 0.854157 -73.730256 -85.479744 -24.486760 -57.432686 3.509116 0.554000 -4.509753 -7.100070 -60.727616 -23.822764 149.196810 84.622100 145.352651 3.218116 -12.898377 4.778493 0.018854 -0.057490 0.016676 17.301849 -48.893019 -48.284912 81.524805 74.461175 101.076083 0.258491 -10.964764 -4.422250 0.003663 0.105966 -0.005669
-1.543365 54.155040 -31.190382 66.370901 -21.580053 0.780380 -8.930344 10.168509 -0.308044 -5.108155 5.810085 0.033388 -6.392918 7.261263 -0.039774 -5.108155 5.810085 0.033388 0.691344 31.489677 -0.357649 0.852242 9.807665 -0.554525 -4.384055 2.107326 -6.088251 -14.476779 2.311941 64.440383 102.776577 -5.807783 30.106590 1.890067 -0.620598 1.437192 12.005377 2.273614 4.515253 15.616387 1.018355 -73.547359 -85.640238 -24.705249 -57.622595 3.508723 0.556760 -4.563145 -7.080546 -60.733345 -23.837884 149.195395 84.626457 145.372091 3.220338 -12.902206 4.779202 0.015458 -0.057344 0.014694 17.311099 -48.899933 -48.289466 81.530450 74.467061 101.092618 0.256282 -10.985150 -4.414445 0.005076 0.111321 -0.007671
-1.542223 54.156686 -31.185015 66.375746 -21.563690 0.772241 -8.925318 10.167810 -0.300709 -5.106107 5.808349 0.037356 -6.390287 7.259150 -0.034750 -5.106107 5.808349 0.037356 0.680400 31.472236 -0.371617 0.843104 9.783834 -0.567645 -4.451932 2.173997 -6.120723 -14.774426 2.467638 64.500109 102.980628 -5.839448 30.102448 1.890220 -0.602872 1.530583 12.080171 2.342969 4.564307 15.901026 1.149403 -73.390536 -85.787155 -24.908256 -57.802916 3.509906 0.559738 -4.607574 -7.054827 -60.733729 -23.856865 149.196016 84.628605 145.396554 3.223865 -12.904254 4.781080 0.011416 -0.059249 0.012131 17.317574 -48.905458 -48.291869 81.555317 74.472725 101.128141 0.258824 -11.004009 -4.408469 0.005044 0.113028 -0.009210
-1.540573 54.157842 -31.179236 66.381532 -21.553581 0.760716 -8.919406 10.167087 -0.292360 -5.104241 5.806286 0.040819 -6.387891 7.256620 -0.030358 -5.104241 5.806286 0.040819 0.672732 31.454017 -0.384053 0.837280 9.758974 -0.579786 -4.499284 2.231065 -6.146089 -15.034761 2.597829 64.558880 103.152039 -5.885512 30.105336 1.890139 -0.593424 1.614256 12.131865 2.399408 4.604816 16.171676 1.253251 -73.261786 -85.913454 -25.096031 -57.983552 3.505215 0.562031 -4.643179 -7.030809 -60.727139 -23.873848 149.215917 84.631169 145.441446 3.229769 -12.905607 4.782425 0.008171 -0.061769 0.010385 17.319378 -48.909042 -48.291776 81.596086 74.474034 101.181342 0.259411 -11.018931 -4.405881 0.004750 0.110286 -0.009964
